<svg xmlns="http://www.w3.org/2000/svg" width="64" height="64" viewBox="0 0 64 64">
    <g fill="none" fill-rule="evenodd">
        <path stroke="#E0E0E3" stroke-dasharray="2,2" d="M32 62c16.569 0 30-13.431 30-30C62 15.431 48.569 2 32 2 15.431 2 2 15.431 2 32c0 16.569 13.431 30 30 30z"/>
        <path fill="#66DDF4" d="M17.6 29h28.8c1.988 0 3.6 1.343 3.6 3s-1.612 3-3.6 3H17.6c-1.988 0-3.6-1.343-3.6-3s1.612-3 3.6-3z"/>
        <path fill="#30B9D3" d="M35 17.6v28.8c0 1.988-1.343 3.6-3 3.6s-3-1.612-3-3.6V17.6c0-1.988 1.343-3.6 3-3.6s3 1.612 3 3.6z"/>
    </g>
</svg>
